<svg width="100" height="100" viewBox="0 0 100 100" fill="none" xmlns="http://www.w3.org/2000/svg">
<path d="M42.2548 74.98C41.9548 75.02 41.4998 75.04 40.8998 75.04H61.8698C61.4348 75.04 61.1048 75.025 60.8698 74.995C60.6398 74.97 60.3698 74.9 60.0698 74.795C59.9262 74.745 59.7942 74.6665 59.6817 74.5643C59.5691 74.4621 59.4784 74.3382 59.4148 74.2C59.2798 73.91 59.2098 73.535 59.2098 73.07V63.285C59.2098 60.635 58.4998 58.695 57.0798 57.47C58.4965 57.332 59.9005 57.0863 61.2798 56.735C62.6249 56.3645 63.9183 55.827 65.1298 55.135C66.3985 54.4443 67.525 53.5197 68.4498 52.41C69.3348 51.33 70.0598 49.9 70.6198 48.11C71.1798 46.32 71.4598 44.265 71.4598 41.945C71.4598 38.64 70.3798 35.83 68.2198 33.505C69.2348 31.025 69.1248 28.24 67.8948 25.155C67.1298 24.905 66.0248 25.055 64.5748 25.605C63.1298 26.15 61.8748 26.755 60.8048 27.405L59.2548 28.39C56.7148 27.675 54.0898 27.325 51.3898 27.325C48.732 27.3172 46.0857 27.6738 43.5248 28.385C43.0848 28.085 42.5098 27.72 41.7848 27.285C41.0648 26.845 39.9198 26.32 38.3648 25.705C36.8098 25.09 35.6348 24.905 34.8398 25.155C33.6398 28.24 33.5448 31.025 34.5548 33.51C32.3998 35.83 31.3198 38.645 31.3198 41.945C31.2842 44.0239 31.5657 46.0961 32.1548 48.09C32.7198 49.865 33.4348 51.295 34.3048 52.39C35.2148 53.5107 36.336 54.4417 37.6048 55.13C38.8164 55.8218 40.1098 56.3593 41.4548 56.73C42.8324 57.0827 44.2348 57.3301 45.6498 57.47C44.5598 58.45 43.8948 59.86 43.6498 61.685C43.0618 61.9647 42.4424 62.1728 41.8048 62.305C41.1498 62.44 40.3698 62.505 39.4698 62.505C38.5087 62.4855 37.5754 62.179 36.7898 61.625C35.8998 61.04 35.1448 60.185 34.5148 59.065C33.9948 58.19 33.3298 57.485 32.5298 56.935C31.7248 56.39 31.0498 56.06 30.4998 55.955L29.6798 55.83C29.2742 55.8001 28.8672 55.8634 28.4898 56.015C28.2748 56.135 28.2098 56.295 28.2898 56.485C28.3839 56.6925 28.5087 56.8846 28.6598 57.055C28.8156 57.2425 28.9936 57.4104 29.1898 57.555L29.4748 57.755C30.1875 58.1226 30.8001 58.658 31.2598 59.315C31.7719 59.9558 32.205 60.6558 32.5498 61.4L32.9598 62.345C33.2909 63.3465 33.9186 64.2237 34.7598 64.86C35.5623 65.4822 36.5016 65.9039 37.4998 66.09C38.4404 66.2628 39.3936 66.3581 40.3498 66.375C41.1109 66.4003 41.8726 66.3535 42.6248 66.235L43.5648 66.07C43.5648 67.105 43.5698 68.515 43.5848 70.29L43.6048 73.075C43.6048 73.675 43.4548 74.13 43.1548 74.445C42.9241 74.7202 42.6068 74.9088 42.2548 74.98Z" fill="black"/>
<path fill-rule="evenodd" clip-rule="evenodd" d="M0 50C0 77.615 22.385 100 50 100C77.615 100 100 77.615 100 50C100 22.385 77.615 0 50 0C22.385 0 0 22.385 0 50ZM78.2843 78.2843C70.7828 85.7857 60.6087 90 50 90C39.3913 90 29.2172 85.7857 21.7157 78.2843C14.2143 70.7828 10 60.6087 10 50C10 39.3913 14.2143 29.2172 21.7157 21.7157C29.2172 14.2143 39.3913 10 50 10C60.6087 10 70.7828 14.2143 78.2843 21.7157C85.7857 29.2172 90 39.3913 90 50C90 60.6087 85.7857 70.7828 78.2843 78.2843Z" fill="black"/>
</svg>
